<?xml version="1.0" standalone="no"?><!DOCTYPE svg PUBLIC "-//W3C//DTD SVG 1.1//EN" "http://www.w3.org/Graphics/SVG/1.1/DTD/svg11.dtd"><svg t="1645240640467" class="icon" viewBox="0 0 1024 1024" version="1.1" xmlns="http://www.w3.org/2000/svg" p-id="2032" width="18" height="18" xmlns:xlink="http://www.w3.org/1999/xlink"><defs><style type="text/css"></style></defs><path d="M183.277714 786.706286c-14.555429 14.573714-14.994286 39.442286 0 54.016 14.994286 14.555429 39.442286 14.555429 54.436572 0l274.285714-274.285715 274.285714 274.285715c14.573714 14.555429 39.424 14.994286 54.436572 0 14.555429-14.994286 14.555429-39.442286 0-54.016L565.997714 512l274.724572-274.285714c14.555429-14.573714 14.994286-39.424 0-53.997715-15.433143-14.994286-39.862857-14.994286-54.436572 0l-274.285714 274.285715-274.285714-274.285715c-14.994286-14.994286-39.862857-15.433143-54.436572 0-14.555429 14.994286-14.555429 39.424 0 53.997715l274.285715 274.285714z" p-id="2033"></path></svg>