<?xml version="1.0" standalone="no"?><!DOCTYPE svg PUBLIC "-//W3C//DTD SVG 1.1//EN" "http://www.w3.org/Graphics/SVG/1.1/DTD/svg11.dtd"><svg t="1645240752698" class="icon" viewBox="0 0 1024 1024" version="1.1" xmlns="http://www.w3.org/2000/svg" p-id="3759" width="18" height="18" xmlns:xlink="http://www.w3.org/1999/xlink"><defs><style type="text/css"></style></defs><path d="M796.422846 524.478323 537.312727 265.185862c-6.368176-6.39914-14.688778-9.471415-22.976697-9.407768-1.119849-0.096331-2.07972-0.639914-3.19957-0.639914-4.67206 0-9.024163 1.087166-13.023626 2.879613-4.032146 1.536138-7.87163 3.872168-11.136568 7.135385L227.647682 524.27706c-12.512727 12.480043-12.54369 32.735385-0.032684 45.248112 6.239161 6.271845 14.432469 9.407768 22.65674 9.407768 8.191587 0 16.352211-3.135923 22.624056-9.34412L479.1356 363.426421l0 563.712619c0 17.695686 14.336138 31.99914 32.00086 31.99914s32.00086-14.303454 32.00086-31.99914L543.13732 361.8576l207.91012 207.73982c6.240882 6.271845 14.496116 9.440452 22.687703 9.440452s16.319527-3.103239 22.560409-9.311437C808.870206 557.277355 808.902889 536.989329 796.422846 524.478323z" p-id="3760"></path><path d="M864.00258 192 160.00258 192c-17.664722 0-32.00086-14.336138-32.00086-32.00086S142.337858 128 160.00258 128l704 0c17.695686 0 31.99914 14.336138 31.99914 32.00086S881.698266 192 864.00258 192z" p-id="3761"></path></svg>